<mxfile host="app.diagrams.net" modified="2024-11-02T02:03:28.205Z" agent="Mozilla/5.0 (Windows NT 10.0; Win64; x64) AppleWebKit/537.36 (KHTML, like Gecko) Chrome/130.0.0.0 Safari/537.36" version="24.6.5" etag="DbLiyOWQL7KHtO0XUmnT" type="github">
  <diagram name="第 1 页" id="bbwo3R3Fuv7qdtXgfbBM">
    <mxGraphModel>
      <root>
        <mxCell id="0" />
        <mxCell id="1" parent="0" />
      </root>
    </mxGraphModel>
  </diagram>
</mxfile>
